<?xml version="1.0" encoding="UTF-8"?>
<svg width="24px" height="24px" viewBox="0 0 24 24" version="1.1" xmlns="http://www.w3.org/2000/svg" xmlns:xlink="http://www.w3.org/1999/xlink">
    <title>desktop-mode-ic</title>
    <g id="CreatorStudio" stroke="none" stroke-width="1" fill="none" fill-rule="evenodd">
        <g id="13-CreatorStudio-/-02-Sandboxes-/-Dashboard-tablet-landscape" transform="translate(-1024.000000, -167.000000)">
            <g id="Bitmap" transform="translate(729.000000, 119.000000)">
                <g id="Group-5" transform="translate(130.000000, 41.000000)">
                    <g id="desktop-mode-ic" transform="translate(165.000000, 7.000000)">
                        <rect id="container" x="0" y="0" width="24" height="24"></rect>
                        <path d="M21,2 C22.1045695,2 23,2.8954305 23,4 L23,16 C23,17.1045695 22.1045695,18 21,18 L15,18 L15,20 L16,20 C16.5522847,20 17,20.4477153 17,21 C17,21.5522847 16.5522847,22 16,22 L8,22 C7.44771525,22 7,21.5522847 7,21 C7,20.4477153 7.44771525,20 8,20 L9,20 L9,18 L3,18 C1.8954305,18 1,17.1045695 1,16 L1,4 C1,2.8954305 1.8954305,2 3,2 L21,2 Z M20,4 L4,4 C3.48716416,4 3.06449284,4.38604019 3.00672773,4.88337887 L3,5 L3,15 C3,15.5128358 3.38604019,15.9355072 3.88337887,15.9932723 L4,16 L20,16 C20.5128358,16 20.9355072,15.6139598 20.9932723,15.1166211 L21,15 L21,5 C21,4.44771525 20.5522847,4 20,4 Z" fill="#7E7E7E"></path>
                    </g>
                </g>
            </g>
        </g>
    </g>
</svg>