<?xml version="1.0" encoding="UTF-8"?>
<svg width="24px" height="24px" viewBox="0 0 24 24" version="1.1" xmlns="http://www.w3.org/2000/svg" xmlns:xlink="http://www.w3.org/1999/xlink">
    <title>mobile-active-mode-ic</title>
    <g id="CreatorStudio" stroke="none" stroke-width="1" fill="none" fill-rule="evenodd">
        <g id="13-CreatorStudio-/-02-Sandboxes-/-Dashboard-tablet-landscape" transform="translate(-1120.000000, -202.000000)">
            <g id="Bitmap" transform="translate(729.000000, 119.000000)">
                <g id="Group-5" transform="translate(130.000000, 41.000000)">
                    <g id="mobile-active-mode-ic" transform="translate(261.000000, 42.000000)">
                        <rect id="container" x="0" y="0" width="24" height="24"></rect>
                        <path d="M16,2 C17.1045695,2 18,2.8954305 18,4 L18,20 C18,21.1045695 17.1045695,22 16,22 L8,22 C6.8954305,22 6,21.1045695 6,20 L6,4 C6,2.8954305 6.8954305,2 8,2 L16,2 Z M15,4 L9,4 C8.48716416,4 8.06449284,4.38604019 8.00672773,4.88337887 L8,5 L8,19 C8,19.5128358 8.38604019,19.9355072 8.88337887,19.9932723 L9,20 L15,20 C15.5128358,20 15.9355072,19.6139598 15.9932723,19.1166211 L16,19 L16,5 C16,4.44771525 15.5522847,4 15,4 Z M12,17 C12.5522847,17 13,17.4477153 13,18 C13,18.5522847 12.5522847,19 12,19 C11.4477153,19 11,18.5522847 11,18 C11,17.4477153 11.4477153,17 12,17 Z" id="mobile-mode-ic" fill="#DCBC65"></path>
                    </g>
                </g>
            </g>
        </g>
    </g>
</svg>