<?xml version="1.0" encoding="UTF-8"?>
<svg width="24px" height="24px" viewBox="0 0 24 24" version="1.1" xmlns="http://www.w3.org/2000/svg" xmlns:xlink="http://www.w3.org/1999/xlink">
    <title>tablet-mode-ic</title>
    <g id="CreatorStudio" stroke="none" stroke-width="1" fill="none" fill-rule="evenodd">
        <g id="13-CreatorStudio-/-02-Sandboxes-/-Dashboard-tablet-landscape" transform="translate(-1072.000000, -167.000000)">
            <g id="Bitmap" transform="translate(729.000000, 119.000000)">
                <g id="Group-5" transform="translate(130.000000, 41.000000)">
                    <g id="tablet-mode-ic" transform="translate(213.000000, 7.000000)">
                        <rect id="container" x="0" y="0" width="24" height="24"></rect>
                        <path d="M22,3 C23.1045695,3 24,3.8954305 24,5 L24,19 C24,20.1045695 23.1045695,21 22,21 L2,21 C0.8954305,21 2.5773543e-16,20.1045695 1.2246468e-16,19 L9.79717439e-16,5 C8.44446689e-16,3.8954305 0.8954305,3 2,3 L22,3 Z M12,18 C11.4477153,18 11,18.4477153 11,19 C11,19.5522847 11.4477153,20 12,20 C12.5522847,20 13,19.5522847 13,19 C13,18.4477153 12.5522847,18 12,18 Z M21,5 L3,5 C2.44771525,5 2,5.44771525 2,6 L2,17 L22,17 L22,6 C22,5.48716416 21.6139598,5.06449284 21.1166211,5.00672773 L21,5 Z" fill="#7E7E7E"></path>
                    </g>
                </g>
            </g>
        </g>
    </g>
</svg>