<?xml version="1.0" encoding="UTF-8"?>
<svg width="111px" height="77px" viewBox="0 0 111 77" version="1.1" xmlns="http://www.w3.org/2000/svg" xmlns:xlink="http://www.w3.org/1999/xlink">
    <title>no-added-ui--image</title>
    <g id="CreatorStudio" stroke="none" stroke-width="1" fill="none" fill-rule="evenodd">
        <g id="13-CreatorStudio-/-No-UI-elements" transform="translate(-1102.000000, -329.000000)">
            <g id="no-added-ui--image" transform="translate(1157.500000, 367.500000) rotate(90.000000) translate(-1157.500000, -367.500000) translate(1119.000000, 312.000000)">
                <path d="M77,15.2499069 C77.0297934,7.48483778 71.1576969,0.947445678 63.3856291,0.0931841455 C55.6135613,-0.761077387 48.4439255,4.34284161 46.7630707,11.9264479 C45.0822159,19.5100542 49.4313336,27.1316241 56.8463532,29.5968002 L56.8463532,58.6522734 C52.1188539,54.3467311 46.1117291,51.681371 39.7279907,51.0568592 L39.2423634,51.0568592 C31.9562132,50.3722303 25.6259684,45.7962453 22.731035,39.1212085 L22.3668146,38.2772735 C28.9859477,34.8518388 32.1492787,27.1827956 29.8519996,20.1305141 C27.5547205,13.0782326 20.4676306,8.70195968 13.0822782,9.77522331 C5.69692592,10.848487 0.169813997,17.0578971 0.00383170322,24.4681478 C-0.16215059,31.8783986 5.08146312,38.3257169 12.4114548,39.7240191 L13.7469299,42.9791966 C18.0252899,52.9097406 27.4398672,59.7132751 38.2711088,60.7018296 L38.7567361,60.7018296 C48.2452236,61.5782343 55.7780936,69.00815 56.7249463,78.4244626 C49.6354894,80.8141749 45.3294536,87.9482375 46.5489688,95.2836027 C47.768484,102.618968 54.1551727,108 61.6419228,108 C69.1286729,108 75.5153616,102.618968 76.7348768,95.2836027 C77.954392,87.9482375 73.6483561,80.8141749 66.5588992,78.4244626 L66.5588992,29.5968002 C72.7753874,27.5301905 76.9747812,21.7598303 77,15.2499069 Z M15.5,20 C18.5375661,20 21,22.4624339 21,25.5 C21,28.5375661 18.5375661,31 15.5,31 C12.4624339,31 10,28.5375661 10,25.5 C10,22.4624339 12.4624339,20 15.5,20 Z M62.5,10 C65.5375661,10 68,12.4624339 68,15.5 C68,18.5375661 65.5375661,21 62.5,21 C59.4624339,21 57,18.5375661 57,15.5 C57,12.4624339 59.4624339,10 62.5,10 Z M62.5000804,98 C60.2755705,98 58.2701003,96.6599876 57.4188172,94.6048085 C56.5675342,92.5496294 57.0380839,90.1840159 58.6110499,88.6110499 C60.1840159,87.0380839 62.5496294,86.5675342 64.6048085,87.4188172 C66.6599876,88.2701003 68,90.2755705 68,92.5000804 C68,95.5376021 65.5376021,98 62.5000804,98 Z" id="Shape" fill="#2B2B2B"></path>
                <path d="M63.331001,3.59019095 C67.0902405,4.0033852 70.3901477,5.79076867 72.7465272,8.41409889 C75.1018579,11.0362615 76.5144084,14.4936768 76.5000038,18.2479699 C76.4878111,21.3953438 75.4664484,24.3638847 73.6968881,26.7953997 C71.9364363,29.2143989 69.4355248,31.1018879 66.4509178,32.1056957 L66.0588992,32.2315868 L66.0588992,81.7880334 C69.6455924,82.9032565 72.5261105,85.2614172 74.3346852,88.2577892 C76.0850196,91.157671 76.8312265,94.6552885 76.2416466,98.2016024 C75.6519827,101.748422 73.812878,104.822597 71.216448,107.010189 C68.6188955,109.198728 65.2633933,110.5 61.6419228,110.5 C58.0204523,110.5 54.6649501,109.198728 52.0673975,107.010189 C49.4709675,104.822597 47.6318629,101.748422 47.0421989,98.2016024 C46.452619,94.6552885 47.198826,91.157671 48.9491603,88.2577892 C50.7001759,85.3567788 53.4559899,83.0540032 56.8846569,81.898269 C56.7370107,76.546939 54.5635381,72.2285032 51.2950666,69.004703 C48.0276191,65.7819127 43.6658053,63.6531277 38.8002465,63.2037263 C33.2605819,62.7198239 28.1837976,60.8204879 23.9627503,57.8293383 C19.8519859,54.9163381 16.5532045,50.9680187 14.4322363,46.29307 L14.2095133,45.7894163 L12.7701378,42.2809847 C9.1114033,41.6503128 5.97193243,39.7245809 3.78455781,37.0350806 C1.65109063,34.4118626 0.423457598,31.0620349 0.503706321,27.4793445 C0.583956625,23.8965836 1.96041259,20.6042204 4.20926772,18.0777538 C6.45910195,15.5501872 9.58201803,13.7891447 13.1541846,13.2700258 C16.7267947,12.7508423 20.227303,13.5496307 23.1124655,15.3312164 C25.9965003,17.1121058 28.2656988,19.8751279 29.3765874,23.2853795 C30.4871886,26.6947485 30.2778221,30.2531978 28.9908392,33.3733036 C27.6961448,36.5121048 25.3109888,39.2071967 22.0823829,40.8613415 L21.7201905,41.0408212 L22.2723178,42.320152 C23.7561136,45.7414369 26.1201971,48.6248805 29.0470734,50.7406506 C31.9732443,52.8559106 35.4619378,54.2038413 39.1970938,54.5548057 C46.1849874,55.1900931 52.2668933,57.9706785 56.9860376,62.4656262 L57.3463532,62.8147655 L57.3463532,32.2316299 C53.5989519,31.0836713 50.6281932,28.5879063 48.8280294,25.4332265 C47.0837019,22.3763963 46.438613,18.7009464 47.251224,15.0346438 C48.0639906,11.3676393 50.2040361,8.30036772 53.0801148,6.25294532 C55.9574197,4.20465008 59.5713881,3.17695566 63.331001,3.59019095 Z M64.7961502,89.9568774 C63.6751421,89.4925407 62.4694699,89.3887042 61.3295541,89.6154475 C60.1896384,89.8421909 59.115479,90.399514 58.2574965,91.2574965 C57.399514,92.115479 56.8421909,93.1896384 56.6154475,94.3295541 C56.3887042,95.4694699 56.4925407,96.6751421 56.9568774,97.7961502 C57.4212142,98.9171584 58.2003297,99.8431208 59.1667036,100.488831 C60.1330776,101.134542 61.2867099,101.5 62.5000804,101.5 C64.1569124,101.5 65.6568923,100.828436 66.7426642,99.7426642 C67.8284361,98.6568923 68.5,97.1569124 68.5,95.5000804 C68.5,94.2867099 68.1345416,93.1330776 67.4888312,92.1667036 C66.8431208,91.2003297 65.9171584,90.4212142 64.7961502,89.9568774 Z M15.5,22.5 C13.8431458,22.5 12.3431458,23.1715729 11.2573593,24.2573593 C10.1715729,25.3431458 9.5,26.8431458 9.5,28.5 C9.5,30.1568542 10.1715729,31.6568542 11.2573593,32.7426407 C12.3431458,33.8284271 13.8431458,34.5 15.5,34.5 C17.1568542,34.5 18.6568542,33.8284271 19.7426407,32.7426407 C20.8284271,31.6568542 21.5,30.1568542 21.5,28.5 C21.5,26.8431458 20.8284271,25.3431458 19.7426407,24.2573593 C18.6568542,23.1715729 17.1568542,22.5 15.5,22.5 Z M62.5,12.5 C60.8431458,12.5 59.3431458,13.1715729 58.2573593,14.2573593 C57.1715729,15.3431458 56.5,16.8431458 56.5,18.5 C56.5,20.1568542 57.1715729,21.6568542 58.2573593,22.7426407 C59.3431458,23.8284271 60.8431458,24.5 62.5,24.5 C64.1568542,24.5 65.6568542,23.8284271 66.7426407,22.7426407 C67.8284271,21.6568542 68.5,20.1568542 68.5,18.5 C68.5,16.8431458 67.8284271,15.3431458 66.7426407,14.2573593 C65.6568542,13.1715729 64.1568542,12.5 62.5,12.5 Z" id="Shape" stroke="#DCBC65"></path>
            </g>
        </g>
    </g>
</svg>